<svg width="176" height="88" viewBox="0 0 176 88" fill="none" xmlns="http://www.w3.org/2000/svg">
<g clip-path="url(#clip0_1497_2)">
<path d="M31.6 25.96C31.2533 25.8267 31.04 25.6933 30.96 25.56C30.8533 25.4267 30.8 25.2533 30.8 25.04C30.8 24.8 30.88 24.6267 31.04 24.52C33.7333 24.52 35.2133 24.5067 35.48 24.48C35.6133 21.5733 36.1867 19.4 37.2 17.96C38.2133 16.52 39.7467 15.8 41.8 15.8C43.1067 15.8 44.1333 16.1867 44.88 16.96C45.6533 17.7333 46.04 18.72 46.04 19.92C46.04 21.6267 45.4667 22.9467 44.32 23.88C43.1733 24.8133 41.4133 25.4533 39.04 25.8V38.32C39.04 40.1333 38.84 41.76 38.44 43.2C38.5467 43.3067 38.7733 43.52 39.12 43.84C39.4933 44.1333 39.7467 44.3467 39.88 44.48C40.0133 44.5867 40.2533 44.7867 40.6 45.08C40.9467 45.3733 41.2 45.5867 41.36 45.72C41.5467 45.8267 41.8133 46 42.16 46.24C42.5067 46.4533 42.8 46.6133 43.04 46.72C43.28 46.8267 43.5733 46.96 43.92 47.12C44.2933 47.2533 44.64 47.36 44.96 47.44C45.7867 47.6 46.5467 47.68 47.24 47.68C49.88 47.68 51.8667 47.0667 53.2 45.84C54.56 44.5867 55.24 42.7867 55.24 40.44C55.2667 40.28 55.4 40.2 55.64 40.2C55.9067 40.2 56.1067 40.24 56.24 40.32C56.64 40.6133 56.84 41.2667 56.84 42.28C56.84 44.4933 55.8933 46.3333 54 47.8C52.1067 49.24 49.84 49.96 47.2 49.96C45.2 49.96 43.4533 49.56 41.96 48.76C40.4667 47.96 39 46.8667 37.56 45.48C36.36 47.7733 34.6267 48.92 32.36 48.92C30.8667 48.92 29.7333 48.5333 28.96 47.76C28.16 46.96 27.76 45.92 27.76 44.64C27.76 43.36 28.1733 42.3067 29 41.48C29.8267 40.6533 30.8533 40.24 32.08 40.24C33.3067 40.24 34.4 40.48 35.36 40.96C35.4133 39.84 35.44 38.9067 35.44 38.16V26.12C34.9067 26.1467 34.2133 26.16 33.36 26.16C32.5067 26.16 31.92 26.0933 31.6 25.96ZM44.2 19.8C44.2 19.16 43.96 18.6133 43.48 18.16C43.0267 17.7067 42.4133 17.48 41.64 17.48C40.8933 17.48 40.2933 17.9733 39.84 18.96C39.3867 19.92 39.12 21.64 39.04 24.12C42.48 23.48 44.2 22.04 44.2 19.8ZM29.56 44.6C29.56 46.36 30.4933 47.24 32.36 47.24C33.8533 47.24 34.7867 45.8933 35.16 43.2C34.0933 42.32 33.1333 41.88 32.28 41.88C31.4267 41.88 30.76 42.12 30.28 42.6C29.8 43.08 29.56 43.7467 29.56 44.6ZM65.76 32.36C65.76 31.56 65.9867 30.96 66.44 30.56C66.8933 30.1333 67.44 29.92 68.08 29.92C68.72 29.92 69.2267 30.1067 69.6 30.48V41.96C69.6 43.48 69.84 44.6267 70.32 45.4C70.8 46.1733 71.4533 46.56 72.28 46.56C73.1067 46.56 73.9067 46.08 74.68 45.12C75.5867 43.9733 76.04 41.8533 76.04 38.76C76.0667 38.6 76.2667 38.52 76.64 38.52C77.12 38.52 77.36 39.2267 77.36 40.64C77.36 42.9067 76.8667 44.72 75.88 46.08C74.92 47.44 73.56 48.12 71.8 48.12C69 48.12 67.16 46.8533 66.28 44.32C65.24 46.8533 63.3333 48.12 60.56 48.12C58.9067 48.12 57.5733 47.6267 56.56 46.64C55.5467 45.6267 55.04 44.1867 55.04 42.32V32.36C55.04 31.56 55.24 30.96 55.64 30.56C56.04 30.1333 56.5467 29.92 57.16 29.92C57.7733 29.92 58.2667 30.1067 58.64 30.48V41.96C58.64 45.1333 59.44 46.72 61.04 46.72C62.24 46.72 63.32 46 64.28 44.56C65.2667 43.12 65.76 41.0933 65.76 38.48V32.36ZM93.2938 46.96C94.2538 46.96 95.0671 46.3333 95.7338 45.08C96.4004 43.8267 96.7338 41.72 96.7338 38.76C96.7604 38.6 96.9604 38.52 97.3338 38.52C97.8138 38.52 98.0538 39.2267 98.0538 40.64C98.0538 43.0133 97.5871 44.92 96.6537 46.36C95.7204 47.8 94.3738 48.52 92.6138 48.52C90.8804 48.52 89.4271 48 88.2538 46.96C87.1071 45.8933 85.9204 44.2133 84.6938 41.92C83.7071 43.8933 82.6538 45.44 81.5338 46.56C80.4404 47.6533 79.1471 48.2 77.6538 48.2C77.3604 48.2 77.1338 48.12 76.9738 47.96C76.8138 47.8 76.7338 47.6267 76.7338 47.44C76.7338 47.2533 76.8138 47.08 76.9738 46.92C77.1604 46.76 77.4804 46.68 77.9338 46.68C78.4138 46.68 78.9338 46.52 79.4938 46.2C80.0804 45.8533 80.6271 45.3067 81.1338 44.56C81.9071 43.4667 82.7471 41.9333 83.6538 39.96L80.8138 34.56C80.2271 33.44 79.7471 32.6533 79.3738 32.2C79.0271 31.7467 78.6671 31.52 78.2938 31.52C77.4671 31.52 77.0538 32.0533 77.0538 33.12L77.2138 34.08C77.1071 34.24 76.9071 34.32 76.6138 34.32C76.0804 34.32 75.8137 33.8667 75.8137 32.96C75.8137 32.0267 76.0671 31.2933 76.5738 30.76C77.1071 30.2 77.9471 29.92 79.0938 29.92C80.2671 29.92 81.3338 30.3333 82.2938 31.16C83.2804 31.96 84.2804 33.2933 85.2938 35.16L86.0138 36.56C87.7471 33.2533 89.5604 31.2133 91.4538 30.44C92.3071 30.0933 93.2404 29.92 94.2538 29.92C94.7871 29.92 95.0538 30.1333 95.0538 30.56C95.0538 31.12 94.7471 31.4 94.1338 31.4C92.6671 31.4 91.3738 32.0267 90.2538 33.28C89.1338 34.5067 88.0404 36.2 86.9738 38.36L88.9338 41.96C89.8404 43.6933 90.6138 44.96 91.2538 45.76C91.8938 46.56 92.5738 46.96 93.2938 46.96ZM107.44 32.36C107.44 31.56 107.666 30.96 108.12 30.56C108.573 30.1333 109.12 29.92 109.76 29.92C110.4 29.92 110.906 30.1067 111.28 30.48V41.96C111.28 43.48 111.52 44.6267 112 45.4C112.48 46.1733 113.133 46.56 113.96 46.56C114.786 46.56 115.586 46.08 116.36 45.12C117.266 43.9733 117.72 41.8533 117.72 38.76C117.746 38.6 117.946 38.52 118.32 38.52C118.8 38.52 119.04 39.2267 119.04 40.64C119.04 42.9067 118.546 44.72 117.56 46.08C116.6 47.44 115.24 48.12 113.48 48.12C110.68 48.12 108.84 46.8533 107.96 44.32C106.92 46.8533 105.013 48.12 102.24 48.12C100.586 48.12 99.253 47.6267 98.2397 46.64C97.2264 45.6267 96.7197 44.1867 96.7197 42.32V32.36C96.7197 31.56 96.9197 30.96 97.3197 30.56C97.7197 30.1333 98.2264 29.92 98.8397 29.92C99.453 29.92 99.9464 30.1067 100.32 30.48V41.96C100.32 45.1333 101.12 46.72 102.72 46.72C103.92 46.72 105 46 105.96 44.56C106.946 43.12 107.44 41.0933 107.44 38.48V32.36ZM121.413 41.2V47.56C121.147 47.9333 120.68 48.12 120.013 48.12C119.347 48.12 118.813 47.92 118.413 47.52C118.013 47.0933 117.813 46.48 117.813 45.68V30.48C118.08 30.1067 118.547 29.92 119.213 29.92C119.88 29.92 120.413 30.1333 120.813 30.56C121.213 30.96 121.413 31.56 121.413 32.36V35.4C122.747 32.0933 124.587 30.44 126.933 30.44C128.613 30.44 129.84 30.8933 130.613 31.8C131.387 32.68 131.773 33.7333 131.773 34.96C131.773 35.6267 131.573 36.16 131.173 36.56C130.773 36.96 130.387 37.16 130.013 37.16C129.32 37.16 128.867 37 128.653 36.68C128.813 36.28 128.893 35.7067 128.893 34.96C128.893 34.2133 128.64 33.5333 128.133 32.92C127.627 32.3067 127.013 32 126.293 32C125.04 32 123.907 33.1467 122.893 35.44C121.907 37.7067 121.413 39.6267 121.413 41.2ZM133.32 32.36C133.32 31.56 133.52 30.96 133.92 30.56C134.32 30.1333 134.827 29.92 135.44 29.92C136.054 29.92 136.547 30.1067 136.92 30.48V41.96C136.92 45.1333 137.72 46.72 139.32 46.72C140.76 46.72 141.934 45.96 142.84 44.44C143.774 42.92 144.24 40.36 144.24 36.76V32.36C144.24 31.56 144.44 30.96 144.84 30.56C145.24 30.1333 145.747 29.92 146.36 29.92C146.974 29.92 147.467 30.1067 147.84 30.48V50.8C148.16 50.7733 148.667 50.76 149.36 50.76C150.054 50.76 150.4 51.0533 150.4 51.64L150.16 52.24C149.147 52.24 148.374 52.2533 147.84 52.28V54.28C147.84 57.0267 147.214 59.1867 145.96 60.76C144.734 62.36 143.08 63.16 141 63.16C139.774 63.16 138.68 62.7867 137.72 62.04C136.787 61.32 136.32 60.1733 136.32 58.6C136.32 56.5733 137.04 54.96 138.48 53.76C139.92 52.56 141.84 51.72 144.24 51.24V45C143.12 47.08 141.32 48.12 138.84 48.12C137.134 48.12 135.787 47.5733 134.8 46.48C133.814 45.3867 133.32 43.8133 133.32 41.76V32.36ZM138.36 58.72C138.36 59.6533 138.614 60.36 139.12 60.84C139.627 61.3467 140.24 61.6 140.96 61.6C141.68 61.6 142.267 61.3867 142.72 60.96C143.734 60.0533 144.24 57.32 144.24 52.76C140.32 53.64 138.36 55.6267 138.36 58.72Z" fill="#0C4DA2"/>
<path d="M30.02 59.48L30.62 59.46C32.9 59.4733 34.6733 59.9067 35.94 60.76C37.2067 61.6133 37.84 62.8267 37.84 64.4C37.84 65.9733 37.3333 67.2067 36.32 68.1C35.3067 68.98 33.9667 69.42 32.3 69.42C31.54 69.42 30.8067 69.28 30.1 69V71.96C30.1 73.52 29.9067 74.6733 29.52 75.42C29.1333 76.18 28.4733 76.56 27.54 76.56C27.0333 76.56 26.64 76.3467 26.36 75.92C26.08 75.4933 25.94 74.8867 25.94 74.1C25.94 72.6467 26.7 71.18 28.22 69.7V61.06C27.6333 61.3267 27.16 61.6467 26.8 62.02C26.44 62.38 26.26 62.7267 26.26 63.06C26.26 63.3933 26.3 63.68 26.38 63.92C26.3 64.08 26.12 64.16 25.84 64.16C25.56 64.16 25.32 64.06 25.12 63.86C24.92 63.66 24.82 63.3933 24.82 63.06C24.82 62.4333 25.1333 61.8133 25.76 61.2C26.3867 60.5867 27.2067 60.1267 28.22 59.82V59.06C28.22 58.66 28.32 58.36 28.52 58.16C28.72 57.9467 28.9667 57.84 29.26 57.84C29.5533 57.84 29.8067 57.9333 30.02 58.12V59.48ZM32.14 68.38C33.4067 68.38 34.3533 68.0467 34.98 67.38C35.6067 66.7 35.92 65.7333 35.92 64.48C35.92 63.2133 35.46 62.2267 34.54 61.52C33.6333 60.8 32.3333 60.44 30.64 60.44C30.4267 60.44 30.24 60.46 30.08 60.5V67.94C30.76 68.2333 31.4467 68.38 32.14 68.38ZM27.52 75.78C27.8 75.78 27.9867 75.4533 28.08 74.8C28.1733 74.1467 28.22 72.76 28.22 70.64C27.2733 71.8 26.8 72.9467 26.8 74.08C26.8 75.2133 27.04 75.78 27.52 75.78ZM44.0064 65.54C44.1797 65.1533 44.4531 64.96 44.8264 64.96C45.2131 64.96 45.4997 65.0533 45.6864 65.24V70.98C45.6864 71.74 45.8064 72.3133 46.0464 72.7C46.2864 73.0867 46.6131 73.28 47.0264 73.28C48.2797 73.28 48.9064 71.98 48.9064 69.38C48.9197 69.3 49.0197 69.26 49.2064 69.26C49.4464 69.26 49.5664 69.6133 49.5664 70.32C49.5664 71.4533 49.3197 72.36 48.8264 73.04C48.3464 73.72 47.6664 74.06 46.7864 74.06C45.4397 74.06 44.5464 73.4667 44.1064 72.28C43.8531 72.8267 43.5064 73.26 43.0664 73.58C42.6264 73.9 42.1264 74.06 41.5664 74.06C39.2331 74.06 38.0664 72.5333 38.0664 69.48C38.0664 67.9333 38.4264 66.7933 39.1464 66.06C39.8797 65.3267 40.8464 64.96 42.0464 64.96C42.9664 64.96 43.6197 65.1533 44.0064 65.54ZM40.2464 71.94C40.4331 72.5267 40.6464 72.9 40.8864 73.06C41.1264 73.2067 41.4464 73.28 41.8464 73.28C42.2464 73.28 42.6797 73.0333 43.1464 72.54C43.6264 72.0333 43.8664 71.38 43.8664 70.58V67.84C43.8664 67.2133 43.6997 66.7067 43.3664 66.32C43.0464 65.9333 42.6797 65.74 42.2664 65.74C41.8664 65.74 41.5464 65.78 41.3064 65.86C41.0664 65.94 40.8397 66.1067 40.6264 66.36C40.1864 66.84 39.9664 67.88 39.9664 69.48C39.9664 70.5333 40.0597 71.3533 40.2464 71.94ZM54.8253 69.26C55.0653 69.26 55.1853 69.6133 55.1853 70.32C55.1853 71.3467 54.9053 72.2267 54.3453 72.96C53.7853 73.6933 53.072 74.06 52.2053 74.06C51.1253 74.06 50.3186 73.74 49.7853 73.1C49.252 72.46 48.9853 71.5533 48.9853 70.38V62.86C48.9853 61.14 49.1653 59.88 49.5253 59.08C49.8853 58.28 50.5186 57.88 51.4253 57.88C52.7453 57.88 53.4053 58.7733 53.4053 60.56C53.4053 61.9067 53.1386 62.9867 52.6053 63.8C52.0853 64.6133 51.4853 65.22 50.8053 65.62V70.98C50.8053 71.74 50.952 72.3133 51.2453 72.7C51.5386 73.0867 51.9386 73.28 52.4453 73.28C52.952 73.28 53.4253 72.9733 53.8653 72.36C54.3053 71.7467 54.5253 70.7533 54.5253 69.38C54.552 69.3 54.652 69.26 54.8253 69.26ZM52.5453 60.58C52.5453 59.3 52.2253 58.66 51.5853 58.66C51.4253 58.66 51.2986 58.7133 51.2053 58.82C51.1253 58.9267 51.052 59.1933 50.9853 59.62C50.8653 60.2733 50.8053 61.9933 50.8053 64.78C51.9653 63.94 52.5453 62.54 52.5453 60.58ZM60.4713 65.54C60.6446 65.1533 60.9179 64.96 61.2913 64.96C61.6779 64.96 61.9646 65.0533 62.1513 65.24V70.98C62.1513 71.74 62.2713 72.3133 62.5113 72.7C62.7513 73.0867 63.0779 73.28 63.4913 73.28C64.7446 73.28 65.3713 71.98 65.3713 69.38C65.3846 69.3 65.4846 69.26 65.6713 69.26C65.9113 69.26 66.0313 69.6133 66.0313 70.32C66.0313 71.4533 65.7846 72.36 65.2913 73.04C64.8113 73.72 64.1313 74.06 63.2513 74.06C61.9046 74.06 61.0113 73.4667 60.5713 72.28C60.3179 72.8267 59.9713 73.26 59.5312 73.58C59.0913 73.9 58.5913 74.06 58.0313 74.06C55.6979 74.06 54.5312 72.5333 54.5312 69.48C54.5312 67.9333 54.8913 66.7933 55.6113 66.06C56.3446 65.3267 57.3113 64.96 58.5113 64.96C59.4313 64.96 60.0846 65.1533 60.4713 65.54ZM56.7113 71.94C56.8979 72.5267 57.1113 72.9 57.3513 73.06C57.5913 73.2067 57.9113 73.28 58.3113 73.28C58.7113 73.28 59.1446 73.0333 59.6113 72.54C60.0913 72.0333 60.3313 71.38 60.3313 70.58V67.84C60.3313 67.2133 60.1646 66.7067 59.8313 66.32C59.5113 65.9333 59.1446 65.74 58.7313 65.74C58.3313 65.74 58.0113 65.78 57.7713 65.86C57.5313 65.94 57.3046 66.1067 57.0913 66.36C56.6513 66.84 56.4313 67.88 56.4313 69.48C56.4313 70.5333 56.5246 71.3533 56.7113 71.94ZM73.7902 69.9C74.0702 69.9 74.2102 70.0933 74.2102 70.48C74.2102 70.8667 74.1302 71.2533 73.9702 71.64C73.8102 72.0267 73.5768 72.4067 73.2702 72.78C72.9768 73.1533 72.5568 73.46 72.0102 73.7C71.4768 73.94 70.8702 74.06 70.1902 74.06C68.6968 74.06 67.5235 73.6867 66.6702 72.94C65.8302 72.18 65.4102 71.0733 65.4102 69.62C65.4102 68.1533 65.7835 67.0133 66.5302 66.2C67.2768 65.3733 68.2302 64.96 69.3902 64.96C70.2302 64.96 70.8435 65.1867 71.2302 65.64C71.6168 66.08 71.8102 66.6067 71.8102 67.22C71.8102 67.5533 71.7102 67.82 71.5102 68.02C71.3102 68.22 71.1168 68.32 70.9302 68.32C70.5835 68.32 70.3568 68.24 70.2502 68.08C70.3302 67.88 70.3702 67.5933 70.3702 67.22C70.3702 66.8467 70.2435 66.5067 69.9902 66.2C69.7368 65.8933 69.4302 65.74 69.0702 65.74C68.4435 65.74 67.9902 66.0467 67.7102 66.66C67.4435 67.2733 67.3102 68.24 67.3102 69.56C67.3102 70.8667 67.5635 71.8133 68.0702 72.4C68.5902 72.9867 69.3102 73.28 70.2302 73.28C71.1502 73.28 71.9235 73 72.5502 72.44C73.1768 71.8667 73.4902 71.06 73.4902 70.02C73.5035 69.94 73.6035 69.9 73.7902 69.9ZM81.9156 69.5C82.1956 69.5 82.3356 69.7133 82.3356 70.14C82.3356 71.1267 81.989 72.0267 81.2956 72.84C80.6156 73.6533 79.5756 74.06 78.1756 74.06C76.7756 74.06 75.649 73.6867 74.7956 72.94C73.9556 72.18 73.5356 71.0733 73.5356 69.62C73.5356 68.1533 73.909 67.0133 74.6556 66.2C75.4023 65.3733 76.3556 64.96 77.5156 64.96C78.3556 64.96 78.969 65.1867 79.3556 65.64C79.7423 66.08 79.9356 66.6067 79.9356 67.22C79.9356 68.22 79.5156 69.0533 78.6756 69.72C77.849 70.3733 76.789 70.7 75.4956 70.7C75.6156 71.5533 75.9223 72.2 76.4156 72.64C76.9223 73.0667 77.5823 73.28 78.3956 73.28C79.2223 73.28 79.9623 72.9733 80.6156 72.36C81.2823 71.7333 81.6156 70.82 81.6156 69.62C81.629 69.54 81.729 69.5 81.9156 69.5ZM75.4356 69.78V69.96C76.2623 69.8533 76.9756 69.5933 77.5756 69.18C78.189 68.7667 78.4956 68.1533 78.4956 67.34C78.4956 66.82 78.3823 66.4267 78.1556 66.16C77.929 65.88 77.609 65.74 77.1956 65.74C76.569 65.74 76.1156 66.0467 75.8356 66.66C75.569 67.2733 75.4356 68.3133 75.4356 69.78ZM103.11 56.4C103.11 56.2 103.304 56.1 103.69 56.1C104.09 56.1 104.497 56.32 104.91 56.76C105.324 57.1867 105.53 57.68 105.53 58.24C105.53 60.2933 104.004 61.32 100.95 61.32C99.7238 61.32 98.5905 61.2133 97.5505 61V70.58C97.5505 71.98 97.2838 73.0933 96.7505 73.92C96.2305 74.7467 95.4371 75.16 94.3705 75.16C93.3171 75.16 92.5238 74.9133 91.9905 74.42C91.4571 73.94 91.1905 73.3 91.1905 72.5C91.1905 71.4733 91.5238 70.96 92.1905 70.96C92.3505 70.96 92.4905 71 92.6105 71.08C92.7305 71.16 92.8305 71.2733 92.9105 71.42C92.8038 71.7 92.7505 72.1133 92.7505 72.66C92.7505 73.2067 92.8905 73.6267 93.1705 73.92C93.4638 74.2 93.8305 74.34 94.2705 74.34C95.1905 74.34 95.6705 73.4867 95.7105 71.78V60.56C94.8305 60.3067 93.9771 59.9933 93.1505 59.62C92.2838 60.66 90.9705 61.18 89.2105 61.18C88.4905 61.18 87.9038 61.0267 87.4505 60.72C86.9971 60.4 86.7705 59.92 86.7705 59.28C86.7705 58 87.5705 57.36 89.1705 57.36C90.3171 57.36 91.9905 57.7867 94.1905 58.64C95.0038 58.9467 96.0238 59.2333 97.2505 59.5C98.4905 59.7667 99.7505 59.9 101.03 59.9C102.31 59.9 103.184 59.76 103.65 59.48C104.117 59.2 104.35 58.7867 104.35 58.24C104.35 57.9067 104.257 57.62 104.07 57.38C103.897 57.1267 103.717 56.96 103.53 56.88L103.27 56.76C103.164 56.68 103.11 56.56 103.11 56.4ZM89.1905 60.26C90.6171 60.26 91.6105 59.9067 92.1705 59.2C90.7438 58.5733 89.7771 58.26 89.2705 58.26C88.7771 58.26 88.4238 58.3533 88.2105 58.54C87.9838 58.7133 87.8705 58.94 87.8705 59.22C87.8705 59.9133 88.3105 60.26 89.1905 60.26ZM105.27 64.96C106.457 64.96 107.424 65.3533 108.17 66.14C108.917 66.9267 109.29 68 109.29 69.36C109.29 70.7067 108.937 71.8267 108.23 72.72C107.537 73.6133 106.604 74.06 105.43 74.06C104.257 74.06 103.277 73.66 102.49 72.86C101.717 72.0467 101.33 70.9267 101.33 69.5C101.33 68.06 101.69 66.9467 102.41 66.16C103.144 65.36 104.097 64.96 105.27 64.96ZM105.29 65.74C104.93 65.74 104.617 65.8333 104.35 66.02C104.097 66.1933 103.97 66.4467 103.97 66.78C103.97 67.6333 104.304 68.4533 104.97 69.24C105.637 70.0133 106.43 70.5267 107.35 70.78C107.377 70.2733 107.39 69.84 107.39 69.48C107.39 68.0933 107.244 67.1267 106.95 66.58C106.657 66.02 106.104 65.74 105.29 65.74ZM103.23 69.48C103.23 70.84 103.397 71.8133 103.73 72.4C104.077 72.9867 104.637 73.28 105.41 73.28C105.944 73.28 106.35 73.1467 106.63 72.88C106.924 72.6 107.124 72.1533 107.23 71.54C106.364 71.3533 105.564 70.96 104.83 70.36C104.11 69.76 103.584 69.0933 103.25 68.36C103.237 68.5867 103.23 68.96 103.23 69.48ZM116.044 66.18C116.044 65.78 116.157 65.48 116.384 65.28C116.611 65.0667 116.884 64.96 117.204 64.96C117.524 64.96 117.777 65.0533 117.964 65.24V70.98C117.964 71.74 118.084 72.3133 118.324 72.7C118.564 73.0867 118.891 73.28 119.304 73.28C119.717 73.28 120.117 73.04 120.504 72.56C120.957 71.9867 121.184 70.9267 121.184 69.38C121.197 69.3 121.297 69.26 121.484 69.26C121.724 69.26 121.844 69.6133 121.844 70.32C121.844 71.4533 121.597 72.36 121.104 73.04C120.624 73.72 119.944 74.06 119.064 74.06C117.664 74.06 116.744 73.4267 116.304 72.16C115.784 73.4267 114.831 74.06 113.444 74.06C112.617 74.06 111.951 73.8133 111.444 73.32C110.937 72.8133 110.684 72.0933 110.684 71.16V66.18C110.684 65.78 110.784 65.48 110.984 65.28C111.184 65.0667 111.437 64.96 111.744 64.96C112.051 64.96 112.297 65.0533 112.484 65.24V70.98C112.484 72.5667 112.884 73.36 113.684 73.36C114.284 73.36 114.824 73 115.304 72.28C115.797 71.56 116.044 70.5467 116.044 69.24V66.18ZM123.031 70.6V73.78C122.898 73.9667 122.664 74.06 122.331 74.06C121.998 74.06 121.731 73.96 121.531 73.76C121.331 73.5467 121.231 73.24 121.231 72.84V65.24C121.364 65.0533 121.598 64.96 121.931 64.96C122.264 64.96 122.531 65.0667 122.731 65.28C122.931 65.48 123.031 65.78 123.031 66.18V67.7C123.698 66.0467 124.618 65.22 125.791 65.22C126.631 65.22 127.244 65.4467 127.631 65.9C128.018 66.34 128.211 66.8667 128.211 67.48C128.211 67.8133 128.111 68.08 127.911 68.28C127.711 68.48 127.518 68.58 127.331 68.58C126.984 68.58 126.758 68.5 126.651 68.34C126.731 68.14 126.771 67.8533 126.771 67.48C126.771 67.1067 126.644 66.7667 126.391 66.46C126.138 66.1533 125.831 66 125.471 66C124.844 66 124.278 66.5733 123.771 67.72C123.278 68.8533 123.031 69.8133 123.031 70.6ZM129.124 63C128.898 62.7733 128.784 62.4933 128.784 62.16C128.784 61.8267 128.898 61.5467 129.124 61.32C129.351 61.08 129.631 60.96 129.964 60.96C130.298 60.96 130.578 61.08 130.804 61.32C131.044 61.5467 131.164 61.8267 131.164 62.16C131.164 62.4933 131.044 62.7733 130.804 63C130.578 63.2267 130.298 63.34 129.964 63.34C129.631 63.34 129.351 63.2267 129.124 63ZM129.044 66.18C129.044 65.78 129.144 65.48 129.344 65.28C129.544 65.0667 129.798 64.96 130.104 64.96C130.411 64.96 130.658 65.0533 130.844 65.24V70.98C130.844 71.74 130.991 72.3133 131.284 72.7C131.578 73.0867 131.978 73.28 132.484 73.28C132.991 73.28 133.464 72.9733 133.904 72.36C134.344 71.7467 134.564 70.7533 134.564 69.38C134.591 69.3 134.691 69.26 134.864 69.26C135.104 69.26 135.224 69.6133 135.224 70.32C135.224 71.3467 134.944 72.2267 134.384 72.96C133.824 73.6933 133.111 74.06 132.244 74.06C131.164 74.06 130.358 73.74 129.824 73.1C129.304 72.46 129.044 71.5533 129.044 70.38V66.18ZM138.309 69.98C137.776 69.7933 137.243 69.6 136.709 69.4C136.189 69.1867 135.749 68.8867 135.389 68.5C135.029 68.1133 134.849 67.62 134.849 67.02C134.849 66.4067 135.129 65.9133 135.689 65.54C136.249 65.1533 137.063 64.96 138.129 64.96C139.209 64.96 140.049 65.1467 140.649 65.52C141.263 65.8933 141.569 66.3267 141.569 66.82C141.569 67.06 141.476 67.2533 141.289 67.4C141.116 67.5467 140.943 67.62 140.769 67.62C140.436 67.62 140.216 67.54 140.109 67.38C140.189 67.2867 140.229 67.1067 140.229 66.84C140.229 66.56 140.023 66.3067 139.609 66.08C139.196 65.8533 138.736 65.74 138.229 65.74C137.723 65.74 137.303 65.8333 136.969 66.02C136.636 66.2067 136.469 66.4933 136.469 66.88C136.469 67.2533 136.656 67.58 137.029 67.86C137.416 68.14 137.876 68.3733 138.409 68.56C138.956 68.7467 139.496 68.9467 140.029 69.16C140.576 69.3733 141.036 69.68 141.409 70.08C141.796 70.4667 141.989 70.9467 141.989 71.52C141.989 72.3733 141.616 73.0133 140.869 73.44C140.136 73.8533 139.163 74.06 137.949 74.06C136.749 74.06 135.769 73.7133 135.009 73.02C134.263 72.3133 133.889 71.44 133.889 70.4C133.889 70.0267 133.963 69.7333 134.109 69.52C134.256 69.3067 134.423 69.2 134.609 69.2C134.956 69.2 135.156 69.26 135.209 69.38L135.249 69.44C135.169 69.64 135.129 69.8867 135.129 70.18C135.129 71.0733 135.389 71.8133 135.909 72.4C136.429 72.9867 137.149 73.28 138.069 73.28C139.483 73.28 140.196 72.78 140.209 71.78C140.209 71.02 139.576 70.42 138.309 69.98ZM148.244 72.84V68.04C148.244 66.4533 147.844 65.66 147.044 65.66C146.377 65.66 145.864 66.0267 145.504 66.76C145.157 67.4933 144.984 68.7867 144.984 70.64V73.78C144.851 73.9667 144.617 74.06 144.284 74.06C143.951 74.06 143.684 73.96 143.484 73.76C143.284 73.5467 143.184 73.24 143.184 72.84V65.24C143.317 65.0533 143.551 64.96 143.884 64.96C144.217 64.96 144.484 65.0667 144.684 65.28C144.884 65.48 144.984 65.78 144.984 66.18C145.437 65.3667 146.204 64.96 147.284 64.96C148.551 64.96 149.404 65.5 149.844 66.58C150.297 65.5 151.144 64.96 152.384 64.96C153.251 64.96 153.937 65.2333 154.444 65.78C154.964 66.3267 155.224 67.1133 155.224 68.14V70.98C155.224 71.74 155.344 72.3133 155.584 72.7C155.824 73.0867 156.177 73.28 156.644 73.28C157.124 73.28 157.544 72.9867 157.904 72.4C158.264 71.8 158.444 70.7933 158.444 69.38C158.457 69.3 158.557 69.26 158.744 69.26C158.984 69.26 159.104 69.6133 159.104 70.32C159.104 71.4533 158.857 72.36 158.364 73.04C157.884 73.72 157.177 74.06 156.244 74.06C155.311 74.06 154.591 73.74 154.084 73.1C153.591 72.46 153.344 71.5533 153.344 70.38V68.04C153.344 66.4533 152.944 65.66 152.144 65.66C150.784 65.66 150.104 67.3333 150.104 70.68V73.78C149.971 73.9667 149.731 74.06 149.384 74.06C149.051 74.06 148.777 73.96 148.564 73.76C148.351 73.5467 148.244 73.24 148.244 72.84Z" fill="#0C4DA2"/>
</g>
<defs>
<clipPath id="clip0_1497_2">
<rect width="176" height="88" fill="white"/>
</clipPath>
</defs>
</svg>
